<?xml version="1.0" encoding="UTF-8" standalone="no"?>
<!DOCTYPE svg PUBLIC "-//W3C//DTD SVG 1.1//EN"
 "http://www.w3.org/Graphics/SVG/1.1/DTD/svg11.dtd">
<!-- Generated by graphviz version 2.38.0 (20140413.2041)
 -->
<!-- Title: supplyChain Pages: 1 -->
<svg width="757pt" height="529pt"
 viewBox="0.00 0.00 757.00 528.76" xmlns="http://www.w3.org/2000/svg" xmlns:xlink="http://www.w3.org/1999/xlink">
<g id="graph0" class="graph" transform="scale(1 1) rotate(0) translate(4 524.76)">
<title>supplyChain</title>
<polygon fill="white" stroke="none" points="-4,4 -4,-524.76 753,-524.76 753,4 -4,4"/>
<!-- c1 -->
<g id="node1" class="node"><title>c1</title>
<ellipse fill="none" stroke="black" cx="36" cy="-144" rx="36" ry="36"/>
<text text-anchor="middle" x="36" y="-134.6" font-family="Times,serif" font-size="38.00">😃</text>
</g>
<!-- c2 -->
<g id="node2" class="node"><title>c2</title>
<ellipse fill="none" stroke="black" cx="126" cy="-144" rx="36" ry="36"/>
<text text-anchor="middle" x="126" y="-134.6" font-family="Times,serif" font-size="38.00">😃</text>
</g>
<!-- c3 -->
<g id="node3" class="node"><title>c3</title>
<ellipse fill="none" stroke="black" cx="216" cy="-144" rx="36" ry="36"/>
<text text-anchor="middle" x="216" y="-134.6" font-family="Times,serif" font-size="38.00">😃</text>
</g>
<!-- c4 -->
<g id="node4" class="node"><title>c4</title>
<ellipse fill="none" stroke="black" cx="306" cy="-144" rx="36" ry="36"/>
<text text-anchor="middle" x="306" y="-134.6" font-family="Times,serif" font-size="38.00">😃</text>
</g>
<!-- c5 -->
<g id="node5" class="node"><title>c5</title>
<ellipse fill="none" stroke="black" cx="416" cy="-36" rx="36" ry="36"/>
<text text-anchor="middle" x="416" y="-26.6" font-family="Times,serif" font-size="38.00">😃</text>
</g>
<!-- c6 -->
<g id="node6" class="node"><title>c6</title>
<ellipse fill="none" stroke="black" cx="506" cy="-36" rx="36" ry="36"/>
<text text-anchor="middle" x="506" y="-26.6" font-family="Times,serif" font-size="38.00">😃</text>
</g>
<!-- c7 -->
<g id="node7" class="node"><title>c7</title>
<ellipse fill="none" stroke="black" cx="623" cy="-36" rx="36" ry="36"/>
<text text-anchor="middle" x="623" y="-26.6" font-family="Times,serif" font-size="38.00">😃</text>
</g>
<!-- c8 -->
<g id="node8" class="node"><title>c8</title>
<ellipse fill="none" stroke="black" cx="713" cy="-36" rx="36" ry="36"/>
<text text-anchor="middle" x="713" y="-26.6" font-family="Times,serif" font-size="38.00">😃</text>
</g>
<!-- p1 -->
<g id="node9" class="node"><title>p1</title>
<polygon fill="none" stroke="black" points="252,-242.421 252,-268.339 230.912,-286.665 201.088,-286.665 180,-268.339 180,-242.421 201.088,-224.095 230.912,-224.095 252,-242.421"/>
<polygon fill="none" stroke="black" points="256,-240.607 256,-270.153 232.41,-290.653 199.59,-290.653 176,-270.153 176,-240.607 199.59,-220.107 232.41,-220.107 256,-240.607"/>
<polygon fill="none" stroke="black" points="260,-238.793 260,-271.967 233.909,-294.64 198.091,-294.64 172,-271.967 172,-238.793 198.091,-216.12 233.909,-216.12 260,-238.793"/>
<text text-anchor="middle" x="216" y="-247.88" font-family="Times,serif" font-size="30.00">▦</text>
</g>
<!-- p1&#45;&gt;c1 -->
<g id="edge7" class="edge"><title>p1&#45;&gt;c1</title>
<path fill="none" stroke="black" d="M176.35,-234.638C148.929,-220.481 111.954,-200.382 81,-180 77.926,-177.976 74.7955,-175.801 71.6898,-173.563"/>
<polygon fill="black" stroke="black" points="73.6988,-170.695 63.5826,-167.546 69.5273,-176.316 73.6988,-170.695"/>
</g>
<!-- p1&#45;&gt;c2 -->
<g id="edge8" class="edge"><title>p1&#45;&gt;c2</title>
<path fill="none" stroke="black" d="M189.968,-222.743C179.032,-209.452 166.266,-193.937 155.028,-180.279"/>
<polygon fill="black" stroke="black" points="157.669,-177.98 148.613,-172.482 152.264,-182.428 157.669,-177.98"/>
</g>
<!-- p1&#45;&gt;c3 -->
<g id="edge9" class="edge"><title>p1&#45;&gt;c3</title>
<path fill="none" stroke="black" d="M216,-215.817C216,-207.596 216,-198.841 216,-190.392"/>
<polygon fill="black" stroke="black" points="219.5,-190.293 216,-180.293 212.5,-190.293 219.5,-190.293"/>
</g>
<!-- p1&#45;&gt;c4 -->
<g id="edge10" class="edge"><title>p1&#45;&gt;c4</title>
<path fill="none" stroke="black" d="M242.032,-222.743C252.968,-209.452 265.734,-193.937 276.972,-180.279"/>
<polygon fill="black" stroke="black" points="279.736,-182.428 283.387,-172.482 274.331,-177.98 279.736,-182.428"/>
</g>
<!-- p2 -->
<g id="node10" class="node"><title>p2</title>
<polygon fill="none" stroke="black" points="487,-242.421 487,-268.339 465.912,-286.665 436.088,-286.665 415,-268.339 415,-242.421 436.088,-224.095 465.912,-224.095 487,-242.421"/>
<polygon fill="none" stroke="black" points="491,-240.607 491,-270.153 467.41,-290.653 434.59,-290.653 411,-270.153 411,-240.607 434.59,-220.107 467.41,-220.107 491,-240.607"/>
<polygon fill="none" stroke="black" points="495,-238.793 495,-271.967 468.909,-294.64 433.091,-294.64 407,-271.967 407,-238.793 433.091,-216.12 468.909,-216.12 495,-238.793"/>
<text text-anchor="middle" x="451" y="-247.88" font-family="Times,serif" font-size="30.00">◫</text>
</g>
<!-- r1 -->
<g id="node12" class="node"><title>r1</title>
<polygon fill="none" stroke="black" points="451,-167 360.016,-132.5 541.984,-132.5 451,-167"/>
<text text-anchor="middle" x="451" y="-140.3" font-family="Times,serif" font-size="14.00">restaurant</text>
</g>
<!-- p2&#45;&gt;r1 -->
<g id="edge12" class="edge"><title>p2&#45;&gt;r1</title>
<path fill="none" stroke="black" d="M451,-215.817C451,-203.163 451,-189.244 451,-177.12"/>
<polygon fill="black" stroke="black" points="454.5,-177.004 451,-167.004 447.5,-177.004 454.5,-177.004"/>
</g>
<!-- r2 -->
<g id="node13" class="node"><title>r2</title>
<polygon fill="none" stroke="black" points="651,-167 560.016,-132.5 741.984,-132.5 651,-167"/>
<text text-anchor="middle" x="651" y="-140.3" font-family="Times,serif" font-size="14.00">restaurant</text>
</g>
<!-- p2&#45;&gt;r2 -->
<g id="edge13" class="edge"><title>p2&#45;&gt;r2</title>
<path fill="none" stroke="black" d="M489.089,-233.549C526.439,-213.122 582.786,-182.306 618.202,-162.937"/>
<polygon fill="black" stroke="black" points="620.072,-165.904 627.166,-158.035 616.713,-159.762 620.072,-165.904"/>
</g>
<!-- w1 -->
<g id="node11" class="node"><title>w1</title>
<polygon fill="none" stroke="black" points="393.007,-354.322 333,-366.76 272.993,-354.322 273.049,-334.198 392.951,-334.198 393.007,-354.322"/>
<text text-anchor="middle" x="333" y="-345.06" font-family="Times,serif" font-size="14.00">wholesaler</text>
</g>
<!-- w1&#45;&gt;p1 -->
<g id="edge6" class="edge"><title>w1&#45;&gt;p1</title>
<path fill="none" stroke="black" d="M315.484,-334.08C300.02,-322.002 276.878,-303.927 256.804,-288.249"/>
<polygon fill="black" stroke="black" points="258.746,-285.324 248.71,-281.927 254.437,-290.841 258.746,-285.324"/>
</g>
<!-- w1&#45;&gt;p2 -->
<g id="edge11" class="edge"><title>w1&#45;&gt;p2</title>
<path fill="none" stroke="black" d="M350.666,-334.08C366.262,-322.002 389.602,-303.927 409.847,-288.249"/>
<polygon fill="black" stroke="black" points="412.247,-290.818 418.01,-281.927 407.961,-285.283 412.247,-290.818"/>
</g>
<!-- r1&#45;&gt;c5 -->
<g id="edge14" class="edge"><title>r1&#45;&gt;c5</title>
<path fill="none" stroke="black" d="M447.516,-132.449C443.463,-120.174 436.516,-99.1334 430.174,-79.9256"/>
<polygon fill="black" stroke="black" points="433.487,-78.7965 427.028,-70.3981 426.84,-80.9913 433.487,-78.7965"/>
</g>
<!-- r1&#45;&gt;c6 -->
<g id="edge15" class="edge"><title>r1&#45;&gt;c6</title>
<path fill="none" stroke="black" d="M456.475,-132.449C463.119,-119.643 474.715,-97.2951 485.016,-77.4419"/>
<polygon fill="black" stroke="black" points="488.137,-79.0272 489.635,-68.5389 481.923,-75.8032 488.137,-79.0272"/>
</g>
<!-- r2&#45;&gt;c7 -->
<g id="edge16" class="edge"><title>r2&#45;&gt;c7</title>
<path fill="none" stroke="black" d="M648.213,-132.449C645.032,-120.409 639.624,-99.9339 634.63,-81.028"/>
<polygon fill="black" stroke="black" points="638.008,-80.1119 632.07,-71.3374 631.24,-81.8997 638.008,-80.1119"/>
</g>
<!-- r2&#45;&gt;c8 -->
<g id="edge17" class="edge"><title>r2&#45;&gt;c8</title>
<path fill="none" stroke="black" d="M657.171,-132.449C664.802,-119.403 678.225,-96.4535 689.997,-76.3277"/>
<polygon fill="black" stroke="black" points="693.063,-78.0186 695.09,-67.6196 687.02,-74.4844 693.063,-78.0186"/>
</g>
<!-- g1 -->
<g id="node14" class="node"><title>g1</title>
<polygon fill="none" stroke="black" points="333,-520.76 282.393,-502.76 333,-484.76 383.607,-502.76 333,-520.76"/>
<text text-anchor="middle" x="333" y="-499.06" font-family="Times,serif" font-size="14.00">grower</text>
</g>
<!-- pr1 -->
<g id="node17" class="node"><title>pr1</title>
<polygon fill="none" stroke="black" points="333,-448.76 244.716,-414.26 421.284,-414.26 333,-448.76"/>
<text text-anchor="middle" x="333" y="-422.06" font-family="Times,serif" font-size="14.00">processor</text>
</g>
<!-- g1&#45;&gt;pr1 -->
<g id="edge1" class="edge"><title>g1&#45;&gt;pr1</title>
<path fill="none" stroke="black" d="M333,-484.741C333,-477.1 333,-467.821 333,-458.948"/>
<polygon fill="black" stroke="black" points="336.5,-458.839 333,-448.84 329.5,-458.84 336.5,-458.839"/>
</g>
<!-- g2 -->
<g id="node15" class="node"><title>g2</title>
<polygon fill="none" stroke="black" points="528,-520.76 477.393,-502.76 528,-484.76 578.607,-502.76 528,-520.76"/>
<text text-anchor="middle" x="528" y="-499.06" font-family="Times,serif" font-size="14.00">grower</text>
</g>
<!-- pr2 -->
<g id="node18" class="node"><title>pr2</title>
<polygon fill="none" stroke="black" points="528,-448.76 439.716,-414.26 616.284,-414.26 528,-448.76"/>
<text text-anchor="middle" x="528" y="-422.06" font-family="Times,serif" font-size="14.00">processor</text>
</g>
<!-- g2&#45;&gt;pr2 -->
<g id="edge3" class="edge"><title>g2&#45;&gt;pr2</title>
<path fill="none" stroke="black" d="M528,-484.741C528,-477.1 528,-467.821 528,-458.948"/>
<polygon fill="black" stroke="black" points="531.5,-458.839 528,-448.84 524.5,-458.84 531.5,-458.839"/>
</g>
<!-- g3 -->
<g id="node16" class="node"><title>g3</title>
<polygon fill="none" stroke="black" points="176,-443.76 125.393,-425.76 176,-407.76 226.607,-425.76 176,-443.76"/>
<text text-anchor="middle" x="176" y="-422.06" font-family="Times,serif" font-size="14.00">grower</text>
</g>
<!-- g3&#45;&gt;w1 -->
<g id="edge5" class="edge"><title>g3&#45;&gt;w1</title>
<path fill="none" stroke="black" d="M196.525,-414.955C222.513,-402.541 267.653,-380.977 298.864,-366.067"/>
<polygon fill="black" stroke="black" points="300.551,-369.14 308.066,-361.671 297.534,-362.824 300.551,-369.14"/>
</g>
<!-- pr1&#45;&gt;w1 -->
<g id="edge2" class="edge"><title>pr1&#45;&gt;w1</title>
<path fill="none" stroke="black" d="M333,-414.014C333,-404.395 333,-389.874 333,-377.068"/>
<polygon fill="black" stroke="black" points="336.5,-376.861 333,-366.861 329.5,-376.861 336.5,-376.861"/>
</g>
<!-- pr2&#45;&gt;w1 -->
<g id="edge4" class="edge"><title>pr2&#45;&gt;w1</title>
<path fill="none" stroke="black" d="M500.475,-414.173C466.841,-401.237 409.727,-379.27 371.685,-364.639"/>
<polygon fill="black" stroke="black" points="372.564,-361.227 361.974,-360.904 370.051,-367.76 372.564,-361.227"/>
</g>
</g>
</svg>
